<svg
  xmlns="http://www.w3.org/2000/svg" version="1.1"
  width="1000" height="618" viewBox="0 0 1000 618">
  <g transform="matrix(1,0,0,1,-0.6060363373316591,0.03155216321920307)">
    <svg viewBox="0 0 396 245" data-background-color="#ffffff" preserveAspectRatio="xMidYMid meet" height="618"
         width="1000"
         xmlns="http://www.w3.org/2000/svg"
    >
      <g id="tight-bounds" transform="matrix(1,0,0,1,0.2399903895833404,-0.012508543671032157)">
        <svg viewBox="0 0 395.52 245.02432409761258" height="245.02432409761258" width="395.52">
          <g>
            <svg viewBox="0 0 395.52 245.02432409761258" height="245.02432409761258" width="395.52">
              <g transform="matrix(1,0,0,1,0,148.9421545761329)">
                <svg viewBox="0 0 395.52 96.08216952147967" height="96.08216952147967" width="395.52">
                  <g id="textblocktransform">
                    <svg viewBox="0 0 395.52 96.08216952147967" height="96.08216952147967" width="395.52"
                         id="textblock">
                      <g>
                        <svg viewBox="0 0 395.52 96.08216952147967" height="96.08216952147967" width="395.52">
                          <g transform="matrix(1,0,0,1,0,0)">
                            <svg width="395.52"
                                 viewBox="-6.151728296984153 -39.84383740355507 205.77671829698417 49.98678311478882"
                                 height="96.08216952147967" data-palette-color="#643667">
                              <path
                                d="M39.12-5.759v0c0.321 1.404-0.417 2.561-2.212 3.47v0c-0.11 0.025-0.183-0.037-0.217-0.186-0.033-0.143 0.057-0.334 0.269-0.574v0c0.598-0.704 0.823-1.381 0.674-2.032v0c-0.288-1.261-1.508-1.946-3.66-2.056v0c-1.916 3.885-4.995 7.45-9.239 10.698-4.243 3.247-8.204 5.291-11.882 6.132-3.678 0.841-5.691 0.504-6.037-1.011v0c-0.288-1.261 0.622-3.052 2.731-5.373 2.103-2.32 4.975-4.591 8.619-6.812 3.645-2.215 7.216-3.721 10.712-4.521v0c1.729-0.395 3.236-0.606 4.523-0.633v0c0.665-2.238 0.75-4.439 0.255-6.603v0c-0.288-1.261-1.088-2.186-2.399-2.775-1.311-0.589-2.902-0.67-4.774-0.243-1.878 0.429-3.576 1.214-5.093 2.354v0c-0.306 0.337-0.566 0.529-0.781 0.579v0c-0.396 0.091-0.618 0.035-0.664-0.166-0.045-0.195 0.169-0.5 0.642-0.916v0c0.736-0.428 2.038-1.748 3.906-3.96 1.861-2.21 3.586-4.776 5.175-7.697 1.589-2.921 2.194-5.21 1.815-6.867v0c-0.618-2.704-3.845-3.388-9.681-2.055v0c-4.107 0.939-8.286 2.776-12.537 5.513-4.244 2.734-7.645 5.806-10.203 9.215-2.558 3.409-3.545 6.391-2.961 8.945v0c0.313 1.371 1.315 1.864 3.005 1.477v0c2.418-0.553 4.658-1.701 6.721-3.444 2.071-1.739 4.636-4.626 7.693-8.662v0c0.345-0.646 0.608-0.99 0.79-1.032v0c0.396-0.091 0.623-0.012 0.68 0.234v0c0.016 0.071-0.052 0.354-0.207 0.848v0c-0.722 1.15-1.779 2.585-3.17 4.304-1.385 1.719-2.696 3.194-3.933 4.428-1.236 1.233-2.682 2.418-4.336 3.556-1.655 1.137-3.22 1.875-4.695 2.211v0c-2.561 0.585-4.101-0.259-4.621-2.534v0c-0.676-2.957 0.557-6.433 3.699-10.426 3.147-4.002 7.104-7.56 11.871-10.673 4.765-3.12 9.201-5.15 13.307-6.089v0c6.525-1.491 10.154-0.635 10.887 2.569v0c0.536 2.346-0.391 5.471-2.781 9.375-2.385 3.896-4.686 6.723-6.904 8.482v0c1.069-0.47 2.091-0.816 3.066-1.039v0c2.268-0.518 4.112-0.485 5.531 0.1 1.426 0.584 2.307 1.613 2.645 3.088v0c0.578 2.528 0.33 5.183-0.744 7.966v0c2.615 0.161 4.12 1.106 4.515 2.835zM28.58-6.591v0c-2.736 0.625-5.701 1.912-8.894 3.859-3.201 1.942-5.793 3.916-7.776 5.921-1.988 2.014-2.877 3.479-2.668 4.395 0.211 0.923 1.425 1.131 3.641 0.625 2.216-0.507 4.569-1.417 7.059-2.732 2.485-1.307 4.989-3.11 7.513-5.41 2.531-2.302 4.322-4.712 5.374-7.229v0c-1.423 0.059-2.839 0.249-4.249 0.571zM22.71-33.797l0.312 0.154c0.024 0.104-1.235 4.259-3.777 12.465-2.544 8.2-4.427 14.186-5.65 17.961v0c-0.108 0.517-0.422 0.968-0.942 1.354-0.515 0.378-0.929 0.602-1.241 0.673-0.305 0.07-0.477 0.023-0.514-0.139-0.037-0.162 0.767-2.791 2.413-7.886 1.64-5.093 3.279-10.159 4.917-15.198 1.632-5.037 2.408-7.567 2.328-7.589v0c0.133-0.406 0.432-0.759 0.897-1.057v0zM52.072-7.2v0c-1.032 0.86-2.296 1.401-3.794 1.623v0l-0.662 0.098c-0.821 1.281-1.737 2.36-2.746 3.237-1.009 0.877-1.916 1.375-2.721 1.494v0c-1.134 0.168-1.809-0.477-2.025-1.935-0.217-1.464 0.32-3.282 1.609-5.454v0c-0.205-0.381-0.35-0.865-0.437-1.452v0c-0.189-1.279 0.205-2.466 1.182-3.561 0.976-1.101 1.995-1.731 3.057-1.887v0c2.229-0.33 3.522 0.712 3.879 3.126v0c0.238 1.609-0.198 3.47-1.308 5.581v0l0.663-0.098c1.167-0.173 2.132-0.598 2.894-1.277v0c0.09-0.121 0.227-0.195 0.412-0.223 0.185-0.027 0.286 0.022 0.305 0.147 0.02 0.132-0.083 0.326-0.308 0.581zM45.876-12.733v0c0.167-0.099 0.307-0.157 0.419-0.173 0.112-0.017 0.18 0.058 0.205 0.223 0.024 0.165-0.143 0.422-0.503 0.772v0c-1.296 1.351-2.243 2.539-2.839 3.563v0c0.994 1.16 2.342 1.82 4.043 1.98v0c1.182-1.893 1.665-3.572 1.449-5.036v0c-0.124-0.838-0.495-1.436-1.115-1.796-0.613-0.361-1.348-0.478-2.205-0.352-0.857 0.127-1.615 0.492-2.274 1.095-0.659 0.603-0.946 1.188-0.863 1.755 0.084 0.567 0.206 1.007 0.367 1.321v0c0.955-1.334 2.06-2.451 3.316-3.352zM42.565-7.027v0c-0.434 1.075-0.562 2.216-0.384 3.423v0c0.097 0.653 0.435 0.936 1.016 0.851v0c0.989-0.146 2.108-1.056 3.356-2.731v0c-1.693-0.053-3.022-0.567-3.988-1.543zM63.34-8.45v0c-1.062 0.823-2.345 1.318-3.849 1.485v0l-0.666 0.074c-0.867 1.25-1.821 2.296-2.861 3.135-1.04 0.84-1.964 1.305-2.773 1.396v0c-1.14 0.127-1.791-0.542-1.953-2.006-0.164-1.471 0.438-3.268 1.804-5.393v0c-0.191-0.388-0.319-0.877-0.385-1.467v0c-0.143-1.285 0.293-2.458 1.309-3.516 1.015-1.065 2.056-1.658 3.123-1.776v0c2.24-0.249 3.494 0.839 3.764 3.263v0c0.18 1.617-0.322 3.46-1.507 5.531v0l0.666-0.074c1.173-0.131 2.152-0.521 2.938-1.173v0c0.094-0.118 0.234-0.187 0.42-0.207 0.186-0.021 0.285 0.032 0.299 0.158 0.015 0.133-0.095 0.322-0.329 0.57zM57.347-14.203v0c0.171-0.093 0.312-0.145 0.425-0.158 0.113-0.013 0.178 0.064 0.197 0.23 0.018 0.166-0.158 0.417-0.53 0.753v0c-1.344 1.303-2.333 2.456-2.966 3.46v0c0.951 1.195 2.275 1.903 3.969 2.123v0c1.25-1.85 1.793-3.51 1.629-4.98v0c-0.094-0.841-0.444-1.453-1.049-1.836-0.599-0.383-1.33-0.526-2.191-0.43-0.861 0.096-1.632 0.433-2.312 1.012-0.68 0.579-0.988 1.153-0.925 1.723 0.063 0.57 0.17 1.014 0.319 1.333v0c1.002-1.299 2.147-2.375 3.434-3.23zM53.833-8.62v0c-0.472 1.059-0.641 2.194-0.506 3.407v0c0.073 0.656 0.401 0.951 0.984 0.887v0c0.994-0.111 2.145-0.98 3.453-2.608v0c-1.69-0.114-3-0.676-3.931-1.686zM77.031-7.887v0l4.39-2.901c0.044 0.071 0.072 0.216 0.084 0.437 0.012 0.22-0.145 0.415-0.469 0.586v0c-4.839 3.625-8.33 5.496-10.474 5.611v0c-1.844 0.099-2.832-1.069-2.962-3.506v0c-0.054-0.999 0.064-1.92 0.352-2.763 0.288-0.85 0.802-1.295 1.54-1.335v0c2.543-0.137 4.506-0.63 5.889-1.478 1.376-0.855 2.042-1.699 1.997-2.531-0.044-0.825-0.656-1.206-1.834-1.143v0c-2.656 0.143-5.906 2.721-9.748 7.735v0c-1.124 2.431-1.969 4.292-2.534 5.584v0c-0.162 0.343-0.409 0.523-0.742 0.541v0c-0.739 0.04-1.122-0.2-1.15-0.719v0c-0.012-0.22 0.047-0.483 0.178-0.791v0l4.467-8.903c2.838-5.701 5.778-10.856 8.821-15.467 3.05-4.604 5.404-6.951 7.062-7.04v0c0.559-0.03 0.963 0.209 1.21 0.716v0c0.116 0.174 0.181 0.391 0.196 0.651v0c0.072 1.331-0.958 3.48-3.088 6.445-2.137 2.966-4.151 5.478-6.044 7.536-1.885 2.064-3.81 4.077-5.773 6.039v0l-1.409 2.85c3.769-4.275 7.131-6.493 10.087-6.652v0c1.698-0.091 2.576 0.415 2.635 1.52v0c0.066 1.218-0.821 2.488-2.659 3.809-1.832 1.32-4.169 2.057-7.011 2.21v0c-0.374 0.614-0.541 1.291-0.502 2.03v0c0.111 2.064 0.979 3.052 2.603 2.964v0c1.178-0.063 2.753-0.702 4.724-1.916v0c0.069-0.077 0.124-0.117 0.164-0.119zM81.509-33.896v0c-0.02-0.366-0.119-0.544-0.299-0.534v0c-2.03 0.109-5.954 5.982-11.77 17.618v0c3.088-3.164 5.896-6.376 8.424-9.637 2.521-3.267 3.736-5.749 3.645-7.447zM89.407-22.789v0c0.553-0.011 0.836 0.259 0.847 0.812 0.011 0.553-0.237 1.122-0.744 1.706-0.508 0.584-1.075 0.883-1.702 0.896v0c-0.513 0.011-0.777-0.344-0.792-1.064-0.015-0.72 0.267-1.289 0.844-1.708 0.585-0.419 1.1-0.633 1.547-0.642zM84.341-15.362v0c0.18-0.304 0.437-0.459 0.77-0.467 0.333-0.007 0.67 0.153 1.01 0.48v0c0.003 0.147-0.23 0.485-0.699 1.014-0.469 0.53-1.258 1.703-2.367 3.52-1.109 1.817-1.658 3.018-1.646 3.605v0c0.008 0.373 0.289 0.591 0.844 0.653v0c0.74-0.015 1.879-0.399 3.417-1.151 1.538-0.752 2.889-1.51 4.053-2.275v0l1.757-1.147c0.035 0.073 0.055 0.219 0.059 0.439 0.005 0.22-0.158 0.41-0.488 0.57v0c-4.915 3.503-8.352 5.275-10.312 5.316v0c-0.96 0.02-1.45-0.45-1.47-1.41-0.02-0.966 0.479-2.317 1.497-4.052 1.017-1.742 2.209-3.44 3.575-5.095zM93.181-11.937v0c-1.785 1.614-2.917 2.419-3.397 2.416v0c-0.147-0.001-0.219-0.078-0.219-0.232 0.001-0.147 0.055-0.273 0.163-0.378v0c0.897-0.48 1.939-1.25 3.127-2.308v0c-0.183-0.448-0.273-0.929-0.27-1.442v0c0.009-1.26 0.664-2.459 1.966-3.596 1.301-1.137 2.396-1.703 3.282-1.697v0c0.487 0.003 0.728 0.239 0.725 0.705-0.003 0.46-0.751 1.571-2.244 3.334v0c-0.148 0.186-0.316 0.368-0.504 0.547-0.188 0.185-0.383 0.397-0.585 0.636-0.208 0.239-0.366 0.414-0.473 0.526v0c0.179 0.188 0.506 0.514 0.983 0.977 0.477 0.463 0.864 0.846 1.162 1.149v0c0.808 0.819 1.207 1.839 1.198 3.058-0.009 1.22-0.776 2.275-2.303 3.164-1.52 0.896-3.103 1.338-4.749 1.326-1.64-0.012-2.456-0.508-2.45-1.487 0.007-0.98 0.77-1.871 2.289-2.674 1.519-0.803 3.113-1.345 4.782-1.626v0c-0.225-0.295-0.638-0.685-1.242-1.169-0.603-0.484-1.017-0.894-1.241-1.229zM96.049-8.866c-1.261 0.138-2.447 0.469-3.557 0.994-1.117 0.532-1.678 1.158-1.683 1.878-0.005 0.72 0.502 1.084 1.522 1.091 1.013 0.007 1.922-0.226 2.725-0.7 0.797-0.474 1.197-1.008 1.201-1.602 0.004-0.593-0.065-1.147-0.208-1.661zM94.365-13.868v0l1.451-1.55c0.968-1.14 1.453-1.83 1.455-2.07 0.002-0.24-0.107-0.361-0.328-0.362v0c-0.633-0.005-1.282 0.298-1.946 0.906-0.671 0.602-1.008 1.19-1.013 1.763-0.004 0.573 0.123 1.011 0.381 1.313zM101.191-6.504v0c0.333 0.021 2.276-1.332 5.831-4.058 3.555-2.726 5.628-4.071 6.22-4.035 0.592 0.037 0.872 0.314 0.84 0.833v0c-0.025 0.406-0.433 1.009-1.223 1.808-0.791 0.806-1.577 1.686-2.357 2.64-0.78 0.947-1.194 1.81-1.242 2.589v0c-0.025 0.406 0.265 0.628 0.871 0.665 0.612 0.038 1.716-0.255 3.31-0.878 1.595-0.623 3.004-1.267 4.227-1.934v0l1.835-0.999c0.035 0.076 0.046 0.223 0.033 0.443-0.014 0.22-0.191 0.396-0.534 0.528v0c-5.193 3.086-8.765 4.569-10.714 4.449v0c-0.965-0.06-1.415-0.608-1.351-1.646v0c0.043-0.699 0.355-1.531 0.935-2.497 0.58-0.959 1.147-1.756 1.701-2.39v0l0.78-0.954c-1.734 1.155-3.535 2.46-5.401 3.915-1.867 1.461-3.287 2.559-4.261 3.294-0.974 0.735-1.644 1.091-2.01 1.068-0.373-0.023-0.543-0.301-0.51-0.833 0.033-0.532 1.015-2.332 2.948-5.398 1.932-3.067 4.146-6.367 6.643-9.9 2.496-3.533 5.08-6.717 7.752-9.551 2.673-2.834 4.655-4.211 5.946-4.132v0c0.552 0.034 0.926 0.318 1.12 0.851v0c0.095 0.186 0.135 0.409 0.119 0.668v0c-0.157 2.548-4.275 7.204-12.354 13.966v0c-1.53 1.308-3.014 2.513-4.45 3.613v0c-3.093 4.552-4.661 7.177-4.704 7.875zM120.835-31.462v0c0.023-0.366-0.056-0.554-0.236-0.565v0c-0.739-0.046-2.389 1.482-4.952 4.584-2.562 3.101-5.304 6.726-8.225 10.874v0c8.764-7.047 13.235-12.011 13.413-14.893zM181.224-27.774v0l-1.931-0.533-0.654-0.143c-1.021 1.742-2.746 3.191-5.175 4.347-2.427 1.149-4.722 1.488-6.885 1.017v0c-1.192-0.26-1.686-0.859-1.481-1.797v0c0.291-1.335 1.724-2.619 4.3-3.853 2.577-1.239 5.433-1.667 8.57-1.283v0l0.047-0.215c0.402-1.843-0.97-3.108-4.116-3.794v0c-4.84-1.055-9.777 0.856-14.813 5.735v0c-2.363 2.323-4.63 4.742-6.802 7.258v0c-6.817 8.011-11.942 13.458-15.375 16.339v0c1.192 0.26 2.109 0.48 2.752 0.662v0l8.834 2.202c2.202 0.48 3.485 0.791 3.85 0.932 0.366 0.135 0.534 0.273 0.503 0.417v0c-0.229 1.049-1.221 1.439-2.979 1.172v0c-4.737-1.183-9.787-2.4-15.149-3.652v0c-7.449 5.526-15.182 7.415-23.201 5.667v0c-1.225-0.267-2.143-0.778-2.756-1.533-0.612-0.761-0.816-1.611-0.611-2.548 0.205-0.938 0.856-1.799 1.955-2.583 1.097-0.777 2.641-1.44 4.63-1.989 1.997-0.554 4.706-0.789 8.127-0.705 3.427 0.086 7.298 0.561 11.612 1.427v0c3.695-3.24 8-7.805 12.915-13.692v0c1.808-2.219 3.872-4.474 6.193-6.766 2.316-2.299 4.494-4.182 6.534-5.648 2.039-1.466 4.333-2.535 6.881-3.207 2.555-0.671 5.132-0.723 7.731-0.156v0c3.576 0.78 5.108 2.342 4.597 4.687v0l-0.036 0.166c0.938 0.205 1.733 0.453 2.386 0.745v0c0.199 0.119 0.254 0.386 0.162 0.803-0.091 0.417-0.296 0.591-0.615 0.521zM110.948-3.265v0c-0.993 0.582-1.567 1.224-1.72 1.928-0.153 0.703 0.064 1.348 0.653 1.934 0.59 0.579 1.501 1.003 2.732 1.271v0c6.644 1.449 13.218-0.335 19.723-5.351v0c-10.387-2.149-17.516-2.077-21.388 0.218zM166.79-24.852v0c-0.126 0.58 0.172 0.948 0.895 1.106v0c1.303 0.284 2.978-0.108 5.026-1.176 2.048-1.068 3.567-2.306 4.556-3.715v0c-2.709-0.25-5.079 0.073-7.109 0.968-2.032 0.901-3.155 1.84-3.368 2.817zM166.834-14.268v0c0.54 0.119 0.751 0.449 0.632 0.989-0.119 0.54-0.494 1.034-1.126 1.482-0.631 0.448-1.253 0.604-1.865 0.469v0c-0.501-0.111-0.674-0.517-0.519-1.22 0.155-0.703 0.563-1.19 1.223-1.461 0.667-0.269 1.219-0.356 1.655-0.259zM160.159-8.245v0c0.247-0.253 0.533-0.343 0.859-0.271 0.326 0.072 0.615 0.306 0.869 0.703v0c-0.032 0.143-0.338 0.417-0.919 0.822-0.581 0.404-1.624 1.359-3.13 2.863-1.506 1.504-2.322 2.543-2.449 3.115v0c-0.08 0.365 0.142 0.642 0.666 0.833v0c0.723 0.159 1.92 0.055 3.592-0.313 1.672-0.368 3.164-0.787 4.476-1.256v0l1.977-0.7c0.017 0.079 0.001 0.226-0.046 0.44-0.047 0.215-0.25 0.361-0.609 0.44v0c-5.602 2.246-9.36 3.158-11.274 2.735v0c-0.937-0.207-1.303-0.779-1.096-1.717 0.208-0.944 1.011-2.139 2.409-3.585 1.399-1.453 2.958-2.822 4.675-4.109zM167.944-2.832v0c-2.115 1.148-3.405 1.664-3.871 1.547v0c-0.142-0.036-0.195-0.128-0.158-0.277 0.036-0.142 0.118-0.252 0.247-0.33v0c0.985-0.255 2.179-0.757 3.583-1.505v0c-0.073-0.479-0.047-0.967 0.078-1.465v0c0.306-1.222 1.225-2.233 2.757-3.032 1.533-0.799 2.729-1.09 3.59-0.875v0c0.472 0.118 0.652 0.403 0.538 0.856-0.112 0.446-1.1 1.35-2.966 2.711v0c-0.188 0.146-0.394 0.283-0.619 0.413-0.226 0.136-0.466 0.296-0.718 0.48-0.259 0.183-0.454 0.316-0.584 0.4v0c0.129 0.225 0.371 0.618 0.725 1.181 0.354 0.563 0.64 1.026 0.858 1.39v0c0.592 0.986 0.74 2.071 0.444 3.255-0.296 1.184-1.29 2.027-2.983 2.532-1.688 0.512-3.331 0.569-4.929 0.169-1.591-0.398-2.268-1.072-2.029-2.023 0.238-0.951 1.189-1.637 2.854-2.059 1.665-0.422 3.342-0.573 5.031-0.453v0c-0.149-0.34-0.459-0.816-0.932-1.429-0.472-0.613-0.778-1.108-0.916-1.486zM170.007 0.828c-1.258-0.163-2.488-0.121-3.691 0.128-1.211 0.254-1.904 0.73-2.079 1.428-0.175 0.698 0.233 1.171 1.223 1.419 0.983 0.246 1.921 0.233 2.813-0.038 0.886-0.273 1.401-0.698 1.545-1.274 0.144-0.576 0.207-1.13 0.189-1.663zM169.549-4.431v0l1.776-1.164c1.21-0.88 1.843-1.436 1.901-1.668 0.058-0.233-0.019-0.376-0.232-0.429v0c-0.614-0.154-1.316-0.013-2.106 0.421-0.794 0.427-1.26 0.918-1.399 1.475-0.139 0.556-0.119 1.011 0.06 1.365zM176.895-13.193v0c2.513 0 4.99-0.017 7.43-0.05v0c3.953-5.067 6.653-7.6 8.1-7.6v0c0.513 0 0.77 0.277 0.77 0.83v0c0 1.773-1.293 3.993-3.88 6.66v0l4.21-0.06c2.813-0.113 4.533-0.17 5.16-0.17 0.627 0 0.94 0.077 0.94 0.23v0c0 0.7-0.48 1.067-1.44 1.1v0l-10.42 0.45c-1.813 1.7-4.05 3.493-6.71 5.38v0c-2.813 4.62-4.22 7.76-4.22 9.42v0c0 0.853 0.547 1.28 1.64 1.28 1.093 0 2.82-0.593 5.18-1.78v0l4.5-2.6c0.033 0.073 0.05 0.22 0.05 0.44 0 0.22-0.167 0.407-0.5 0.56v0c-1.18 0.813-2.473 1.627-3.88 2.44v0c-2.993 1.513-5.283 2.27-6.87 2.27v0c-0.74 0-1.313-0.147-1.72-0.44-0.407-0.3-0.63-0.597-0.67-0.89v0l-0.11-0.45c0-1.253 0.85-3.367 2.55-6.34 1.7-2.98 3.713-6.023 6.04-9.13v0c-1.773 0.08-3.453 0.12-5.04 0.12-1.593 0-2.39-0.187-2.39-0.56v0c0-0.7 0.427-1.07 1.28-1.11zM191.475-18.843v0c0-0.187-0.073-0.28-0.22-0.28v0c-0.847 0-2.73 1.94-5.65 5.82v0h2.77c2.067-2.253 3.1-4.1 3.1-5.54zM186.825-11.753v0c-1.187 0-1.983 0.02-2.39 0.06v0c-0.333 0.48-0.797 1.183-1.39 2.11-0.587 0.92-0.993 1.547-1.22 1.88v0c1.927-1.407 3.593-2.757 5-4.05z"
                                opacity="1" transform="matrix(1,0,0,1,0,0)" fill="#643667" class="wordmark-text-0"
                                data-fill-palette-color="primary" id="text-0"></path>
                            </svg>
                          </g>
                        </svg>
                      </g>
                    </svg>
                  </g>
                </svg>
              </g>
              <g transform="matrix(1,0,0,1,75.54432,0)">
                <svg viewBox="0 0 244.43135999999998 117.19669208412454" height="117.19669208412454"
                     width="244.43135999999998">
                  <g>
                    <svg
                      xmlns="http://www.w3.org/2000/svg"
                      version="1.1" x="0" y="0"
                      viewBox="0 0 97.42699999999999 46.713" enable-background="new -1.286 -24.917 100 100"
                      xml:space="preserve" height="117.19669208412454" width="244.43135999999998" class="icon-icon-0"
                      data-fill-palette-color="accent" id="icon-0">
											<path
                        d="M35.03 35.148c-7.732-3.146-11.661-3.487-15.821-3.848-4.101-0.354-8.347-0.729-16.382-3.95-0.597 0.901-1.09 2.651-1.487 4.772 8.261 2.153 12.443 1.988 16.477 1.821 4.081-0.168 8.298-0.341 16.548 1.847 2.792 0.741 4.966 1.47 6.695 2.176C39.524 37.117 37.569 36.181 35.03 35.148z"
                        fill="#643667" data-fill-palette-color="accent"></path>
                      <path
                        d="M34.048 37.982c-8.068-2.141-12.008-1.98-16.182-1.808-4.11 0.17-8.367 0.338-16.739-1.835-0.27 1.654-0.488 3.445-0.661 5.174 8.167 0.969 12.216 0.268 16.122-0.416 4.021-0.703 8.179-1.43 16.647-0.348 3.312 0.424 5.807 0.94 7.732 1.5C39.258 39.53 37.023 38.771 34.048 37.982z"
                        fill="#643667" data-fill-palette-color="accent"></path>
                      <path
                        d="M16.801 41.31c-3.991 0.697-8.125 1.412-16.451 0.43C0.18 43.635 0.063 45.386 0 46.685c8.365-0.059 12.312-1.281 16.133-2.465 3.901-1.208 7.934-2.457 16.469-2.457 2.886 0 5.174 0.146 7.025 0.387-1.702-0.43-3.83-0.831-6.547-1.178C24.8 39.912 20.914 40.591 16.801 41.31z"
                        fill="#643667" data-fill-palette-color="accent"></path>
                      <path
                        d="M79.611 33.969c4.043 0.165 8.232 0.333 16.533-1.835-0.41-2.307-0.904-4.096-1.479-4.783-8.078 3.246-12.334 3.619-16.447 3.975-4.16 0.361-8.09 0.7-15.822 3.849-2.539 1.034-4.496 1.97-6.031 2.821 1.729-0.707 3.904-1.438 6.699-2.178C71.312 33.628 75.531 33.802 79.611 33.969z"
                        fill="#643667" data-fill-palette-color="accent"></path>
                      <path
                        d="M94.041 25.278L85.287 0c-6.336 2.515-9.715 2.807-12.984 3.09-3.342 0.289-6.498 0.562-12.707 3.089-8.611 3.506-9.078 5.696-9.328 6.873-0.121 0.565-0.264 1.197-1.038 1.609v28.725c0.004-0.006 0.012-0.012 0.017-0.02 0.036-0.052 0.068-0.115 0.1-0.184 0.065-0.158 0.114-0.348 0.174-0.625 0.39-1.831 1.042-4.896 12.414-9.523 7.904-3.22 12.111-3.583 16.18-3.936C82.107 28.753 86.234 28.397 94.041 25.278z"
                        fill="#643667" data-fill-palette-color="accent"></path>
                      <path
                        d="M80.837 39.123c3.91 0.684 7.961 1.383 16.141 0.414-0.172-1.79-0.383-3.569-0.633-5.184-8.398 2.184-12.664 2.017-16.785 1.846-4.174-0.171-8.113-0.332-16.182 1.809-2.975 0.79-5.209 1.549-6.922 2.27 1.926-0.56 4.422-1.076 7.734-1.5C72.656 37.693 76.818 38.42 80.837 39.123z"
                        fill="#643667" data-fill-palette-color="accent"></path>
                      <path
                        d="M81.294 44.247c3.82 1.183 7.768 2.406 16.133 2.466-0.072-1.51-0.188-3.213-0.336-4.948-8.334 0.985-12.473 0.269-16.465-0.429-4.113-0.719-7.998-1.397-16.279-0.338-2.715 0.348-4.844 0.75-6.545 1.178 1.85-0.238 4.137-0.387 7.023-0.387C73.361 41.789 77.394 43.039 81.294 44.247z"
                        fill="#643667" data-fill-palette-color="accent"></path>
                      <path
                        d="M47.907 42.533c0.033 0.154 0.061 0.279 0.091 0.394V14.662c-0.774-0.412-0.917-1.044-1.037-1.609-0.251-1.177-0.717-3.367-9.329-6.873-6.209-2.527-9.365-2.8-12.706-3.089-3.27-0.283-6.647-0.576-12.981-3.089L3.382 25.25c7.81 3.121 11.938 3.479 15.933 3.824 4.068 0.353 8.274 0.717 16.179 3.934C46.866 37.636 47.518 40.702 47.907 42.533z"
                        fill="#643667" data-fill-palette-color="accent"></path>
										</svg>
                  </g>
                </svg>
              </g>
              <g></g>
            </svg>
          </g>
          <defs></defs>
        </svg>
        <rect width="395.52" height="245.02432409761258" fill="none" stroke="none" visibility="hidden"></rect>
      </g>
    </svg>
  </g>
</svg>
