<?xml version="1.0" standalone="no"?>
<!DOCTYPE svg PUBLIC "-//W3C//DTD SVG 20010904//EN"
 "http://www.w3.org/TR/2001/REC-SVG-20010904/DTD/svg10.dtd">
<svg version="1.0" xmlns="http://www.w3.org/2000/svg"
 width="48.000000pt" height="48.000000pt" viewBox="0 0 48.000000 48.000000"
 preserveAspectRatio="xMidYMid meet">

<g transform="translate(0.000000,48.000000) scale(0.100000,-0.100000)"
fill="#000000" stroke="none">
<path d="M83 303 c9 -2 23 -2 30 0 6 3 -1 5 -18 5 -16 0 -22 -2 -12 -5z"/>
<path d="M350 306 c0 -2 13 -6 29 -8 17 -2 28 -1 25 4 -5 8 -54 12 -54 4z"/>
<path d="M240 255 c-7 -9 -11 -17 -9 -20 3 -2 10 5 17 15 14 24 10 26 -8 5z"/>
<path d="M421 254 c0 -6 -20 -14 -43 -18 -24 -4 -66 -14 -95 -23 -44 -14 -57
-14 -80 -4 -15 7 -58 19 -94 25 l-66 13 0 -36 0 -37 75 7 c47 5 83 4 98 -3 18
-8 30 -8 47 0 15 8 44 9 95 4 40 -5 74 -6 76 -3 1 3 -1 24 -5 46 -3 22 -7 35
-8 29z"/>
</g>
</svg>
